# xmcd
#
# Track frame offsets:
#	150
#	12940
#	27127
#	41385
#	57910
#	71692
#	82670
#	96415
#	111792
#	125707
#	140910
#	155757
#
# Disc length: 2281 seconds
#
# Revision: 2
# Processed by: cddbd v1.5.2PL0 Copyright (c) Steve Scherf et al.
# Submitted via: audiograbber 1.83.01
#
DISCID=a108e70c
DTITLE=Shelton, Ricky van - Love and honor
DYEAR=1994
DGENRE=Country
TTITLE0=Wherever she is
TTITLE1=Complicated
TTITLE2=Lola's love
TTITLE3=I thougt I'd heard it all
TTITLE4=Then for them
TTITLE5=Baby, take a picture
TTITLE6=Love without you
TTITLE7=Been there, done that
TTITLE8=Love and honor
TTITLE9=Where the tallgrass grows
TTITLE10=Thanks a lot
TTITLE11=Where was I
EXTD=
EXTT0=
EXTT1=
EXTT2=
EXTT3=
EXTT4=
EXTT5=
EXTT6=
EXTT7=
EXTT8=
EXTT9=
EXTT10=
EXTT11=
PLAYORDER=
